<svg width="100" height="100" viewBox="0 0 64 64" fill="none" xmlns="http://www.w3.org/2000/svg">
    <path d="M24 47.5C24 48.8807 22.8807 50 21.5 50C20.1193 50 19 48.8807 19 47.5C19 46.1193 20.1193 45 21.5 45C22.8807 45 24 46.1193 24 47.5Z" fill="black"/>
    <path d="M42.5 50C43.8807 50 45 48.8807 45 47.5C45 46.1193 43.8807 45 42.5 45C41.1193 45 40 46.1193 40 47.5C40 48.8807 41.1193 50 42.5 50Z" fill="black"/>
    <path fill-rule="evenodd" clip-rule="evenodd" d="M14.1632 17.9966C13.41 20.3 13 22.7839 13 25.3652C13 30.2423 13.1499 34.1885 13.4369 37.3647C9.61053 39.3703 7.00001 43.3803 7.00001 48C7.00001 54.6274 12.3726 60 19 60H45C51.6274 60 57 54.6274 57 48C57 43.3803 54.3895 39.3703 50.5631 37.3647C50.8501 34.1885 51 30.2423 51 25.3652C51 22.7839 50.59 20.3 49.8368 17.9966C50.9257 17.9699 52.0765 17.7843 53.2134 17.35C55.508 16.4735 57.2538 14.8121 58.3792 13.3057C58.9445 12.5492 59.3727 11.8062 59.6441 11.18C59.7788 10.8692 59.885 10.5637 59.9448 10.2845C59.9919 10.0643 60.061 9.64861 59.895 9.25416C59.805 9.04019 59.666 8.88872 59.5814 8.80528C59.4837 8.709 59.3753 8.62333 59.2698 8.54879C59.0578 8.399 58.7954 8.25024 58.5033 8.10945C57.9154 7.82616 57.1349 7.54049 56.2355 7.33018C54.4459 6.91166 52.079 6.76771 49.7692 7.65004C48.0876 8.2924 46.7238 9.39592 45.6829 10.5393C42.2444 6.52 37.41 4 32 4C26.5901 4 21.7556 6.52 18.3171 10.5393C17.2762 9.39592 15.9124 8.2924 14.2308 7.65004C11.9211 6.76771 9.55413 6.91166 7.76448 7.33018C6.86517 7.54049 6.08461 7.82616 5.49674 8.10945C5.20458 8.25024 4.94218 8.399 4.73024 8.54879C4.62478 8.62333 4.51629 8.709 4.41866 8.80528C4.33408 8.88872 4.19502 9.04019 4.10501 9.25416C3.93908 9.64861 4.0081 10.0643 4.05522 10.2845C4.11499 10.5637 4.22126 10.8692 4.35597 11.18C4.62731 11.8062 5.05554 12.5492 5.62078 13.3057C6.74627 14.8121 8.49206 16.4735 10.7867 17.35C11.9235 17.7843 13.0743 17.9699 14.1632 17.9966ZM9.00001 48C9.00001 44.0312 11.312 40.6024 14.6627 38.987C14.7613 38.971 14.8581 38.9401 14.9497 38.8942C15.4599 38.6389 17.3354 38 20 38H44C44.6273 38 45.6537 38.0478 46.6574 38.1901C47.1411 38.2587 47.5785 38.3441 47.9485 38.4418C48.2354 38.5302 48.5168 38.6312 48.7921 38.7441C48.8482 38.773 48.8988 38.8025 48.9437 38.8324C49.0644 38.9127 49.1988 38.9645 49.3373 38.987C52.688 40.6024 55 44.0312 55 48C55 53.5229 50.5229 58 45 58H19C13.4772 58 9.00001 53.5229 9.00001 48ZM14.9261 15.988C13.8229 16.0428 12.6396 15.9169 11.5003 15.4817C9.66277 14.7797 8.1986 13.4145 7.22297 12.1087C6.73766 11.4591 6.39254 10.8497 6.19106 10.3848C6.13793 10.2622 6.09754 10.1559 6.06774 10.0668C6.14926 10.0199 6.24821 9.96743 6.36498 9.91116C6.81315 9.69519 7.45439 9.45666 8.21991 9.27764C9.7599 8.9175 11.6947 8.82221 13.5171 9.51836C14.9563 10.0681 16.153 11.0777 17.0708 12.149C16.2407 13.3352 15.5204 14.6216 14.9261 15.988ZM49.0739 15.988C48.4796 14.6216 47.7593 13.3352 46.9292 12.149C47.847 11.0777 49.0437 10.0681 50.4829 9.51836C52.3053 8.82221 54.2401 8.9175 55.7801 9.27764C56.5456 9.45666 57.1869 9.69519 57.635 9.91116C57.7518 9.96743 57.8508 10.0199 57.9323 10.0668C57.9025 10.1559 57.8621 10.2622 57.809 10.3848C57.6075 10.8497 57.2624 11.4591 56.7771 12.1087C55.8014 13.4145 54.3373 14.7797 52.4997 15.4817C51.3604 15.9169 50.1771 16.0428 49.0739 15.988ZM5.99999 9.80427C5.99837 9.79133 5.99874 9.78574 5.99874 9.78574C5.99874 9.78574 5.99993 9.7925 5.99999 9.80427ZM58 9.80427C58.0017 9.79133 58.0013 9.78574 58.0013 9.78574C58.0013 9.78574 58.0001 9.7925 58 9.80427ZM25 24C26.1046 24 27 23.1046 27 22C27 20.8954 26.1046 20 25 20C23.8954 20 23 20.8954 23 22C23 23.1046 23.8954 24 25 24ZM41 24C42.1046 24 43 23.1046 43 22C43 20.8954 42.1046 20 41 20C39.8954 20 39 20.8954 39 22C39 23.1046 39.8954 24 41 24Z" fill="black"/>
</svg>
