<svg width="100" height="100" viewBox="0 0 64 64" fill="none" xmlns="http://www.w3.org/2000/svg">
    <path d="M18.3183 16.0046C18.7448 15.9077 19.2457 15.888 19.8356 15.9864C20.3804 16.0772 20.8956 15.7091 20.9864 15.1644C21.0772 14.6196 20.7092 14.1044 20.1644 14.0136C18.3957 13.7188 16.9893 14.16 15.9528 14.9574C14.9459 15.7319 14.348 16.7938 14.0513 17.6838C13.8767 18.2077 14.1598 18.774 14.6838 18.9487C14.8005 18.9876 14.9194 19.0038 15.0355 18.9996C15.0121 19.163 15 19.3301 15 19.5C15 21.433 16.567 23 18.5 23C20.433 23 22 21.433 22 19.5C22 17.567 20.433 16 18.5 16C18.4391 16 18.3785 16.0016 18.3183 16.0046Z" fill="black"/>
    <path d="M49 19.5C49 21.433 47.433 23 45.5 23C43.567 23 42 21.433 42 19.5C42 17.8932 43.0828 16.5393 44.5585 16.1281C43.8179 15.8935 43.0154 15.8446 42.1644 15.9864C41.6196 16.0772 41.1044 15.7092 41.0136 15.1644C40.9228 14.6196 41.2908 14.1044 41.8356 14.0136C44.6288 13.5481 47.0914 14.6219 48.8 16.9C49.0928 17.2904 49.057 17.8253 48.7397 18.1732C48.9075 18.5823 49 19.0304 49 19.5Z" fill="black"/>
    <path d="M45.7479 39.3362C46.1145 39.7493 46.0769 40.3813 45.6638 40.7479C42.5449 43.516 37.0601 44.9329 31.8174 44.9977C29.1692 45.0304 26.5162 44.7204 24.1692 44.0289C21.8316 43.3401 19.7313 42.2527 18.2682 40.6815C17.8918 40.2773 17.9143 39.6445 18.3185 39.2682C18.7227 38.8918 19.3555 38.9143 19.7318 39.3185C20.8688 40.5394 22.6034 41.4825 24.7345 42.1105C26.8564 42.7357 29.3058 43.0285 31.7927 42.9978C36.8199 42.9357 41.7351 41.5605 44.3362 39.2521C44.7493 38.8855 45.3813 38.9232 45.7479 39.3362Z" fill="black"/>
    <path d="M37.6974 49.7167C38.0932 49.3315 38.1019 48.6984 37.7167 48.3026C37.3315 47.9068 36.6984 47.8982 36.3026 48.2833C34.8678 49.6795 33.2159 50.0936 31.6539 49.9831C30.0615 49.8705 28.5757 49.2093 27.6008 48.4767C27.1593 48.1449 26.5324 48.2338 26.2006 48.6753C25.8688 49.1168 25.9577 49.7437 26.3992 50.0755C27.6466 51.0129 29.4941 51.8354 31.5128 51.9782C33.5619 52.123 35.7989 51.5641 37.6974 49.7167Z" fill="black"/>
    <path fill-rule="evenodd" clip-rule="evenodd" d="M37.5235 13.0056C40.4228 7.64592 46.6094 5.33419 51.4161 8.29602C56.1673 11.2237 57.3877 17.9922 54.4985 23.3331C54.2145 23.8581 53.9001 24.3531 53.5595 24.8163C58.7673 28.501 61.12 35.5164 59.487 42.4203C57.6022 50.3892 50.9978 53.5166 44.0209 55.6141C40.4118 56.6992 35.7842 57.0647 31.4104 56.9909C27.0316 56.917 22.8068 56.4007 19.979 55.6665C14.4694 54.236 9.10574 52.1966 6.05826 46.1649C2.30663 38.7395 3.6882 29.2086 10.2348 24.6736C9.93382 24.2518 9.65431 23.8046 9.39924 23.3331C6.51006 17.9922 7.73042 11.2237 12.4816 8.29602C17.2883 5.33419 23.4749 7.64592 26.3743 13.0056C26.833 13.8537 27.1873 14.7331 27.4408 15.6243C28.894 15.304 30.4025 15.1355 31.9489 15.1355C33.4952 15.1355 35.0037 15.304 36.4569 15.6243C36.7104 14.7331 37.0647 13.8537 37.5235 13.0056ZM50.3669 9.99873C46.7701 7.78241 41.7741 9.35147 39.2826 13.9572C38.747 14.9472 38.3805 15.9861 38.1739 17.0297L37.9654 18.0829L36.9296 17.8001C35.3428 17.3668 33.6733 17.1355 31.9489 17.1355C30.2245 17.1355 28.5549 17.3668 26.9682 17.8001L25.9324 18.0829L25.7238 17.0297C25.5172 15.9861 25.1507 14.9472 24.6151 13.9572C22.1236 9.35147 17.1277 7.78241 13.5308 9.99873C9.87855 12.2492 8.65666 17.7569 11.1583 22.3815C11.5367 23.081 11.9759 23.7123 12.4607 24.2715L13.2558 25.1887L12.2033 25.7936C12.1299 25.8358 12.0567 25.8789 11.9838 25.9229C5.95267 29.5627 4.29839 38.2466 7.84336 45.263C10.4769 50.4755 15.0748 52.3269 20.4816 53.7307C23.112 54.4137 27.1703 54.919 31.4441 54.9912C35.7229 55.0634 40.1176 54.6992 43.4451 53.6988C50.3415 51.6255 55.9264 48.7853 57.5407 41.96C59.1037 35.352 56.5805 28.8655 51.575 25.9122L50.5257 25.2931L51.3375 24.3846C51.8618 23.7978 52.3353 23.1285 52.7394 22.3815C55.2411 17.7569 54.0192 12.2492 50.3669 9.99873Z" fill="black"/>
</svg>
