<svg width="100" height="100" viewBox="0 0 64 64" fill="none" xmlns="http://www.w3.org/2000/svg">
    <path fill-rule="evenodd" clip-rule="evenodd" d="M38 42C38 43.6542 37.1967 45.1207 35.9589 46.0309C35.9874 46.4268 36.003 46.8295 35.9995 47.0566C35.9672 49.134 34.2267 51 32 51C29.7733 51 28.0328 49.134 28.0005 47.0566C27.997 46.8295 28.0126 46.4268 28.0411 46.0309C26.8033 45.1207 26 43.6542 26 42V40.9826C26 40.4996 26.07 40.0192 26.2077 39.5563L27.8284 34.1109C28.3777 32.2653 30.0744 31 32 31C33.9256 31 35.6223 32.2653 36.1716 34.1109L37.7923 39.5563C37.93 40.0192 38 40.4996 38 40.9826V42ZM33 47C33.3422 47 33.6763 46.9656 33.9992 46.9002C34.0001 46.9503 34.0002 46.9928 33.9997 47.0255C33.9837 48.059 33.0865 49 32 49C30.9135 49 30.0163 48.059 30.0003 47.0255C29.9998 46.9928 29.9999 46.9503 30.0008 46.9002C30.3237 46.9656 30.6578 47 31 47H33Z" fill="black"/>
    <path d="M38.9754 32.5664C39.3968 32.6506 40.0858 32.8393 40.8614 33.1423C40.3524 33.3822 40 33.8999 40 34.5C40 35.3284 40.6716 36 41.5 36C42.3284 36 43 35.3284 43 34.5C43 34.3994 42.9901 34.301 42.9712 34.2059C43.3939 34.4807 43.7861 34.7861 44.1213 35.1213C44.5118 35.5119 45.145 35.5119 45.5355 35.1213C45.926 34.7308 45.926 34.0976 45.5355 33.7071C44.5667 32.7383 43.3249 32.0295 42.2093 31.5371C41.0886 31.0425 40.029 30.7375 39.3677 30.6052C38.8261 30.4969 38.2993 30.8481 38.191 31.3897C38.0827 31.9312 38.4339 32.4581 38.9754 32.5664Z" fill="black"/>
    <path d="M23.1386 33.1423C23.9142 32.8393 24.6032 32.6506 25.0245 32.5664C25.5661 32.4581 25.9173 31.9312 25.809 31.3897C25.7007 30.8481 25.1739 30.4969 24.6323 30.6052C23.971 30.7375 22.9114 31.0425 21.7907 31.5371C20.6751 32.0295 19.4333 32.7383 18.4645 33.7071C18.0739 34.0976 18.0739 34.7308 18.4645 35.1213C18.855 35.5119 19.4882 35.5119 19.8787 35.1213C20.2139 34.7861 20.6061 34.4807 21.0288 34.2059C21.0099 34.301 21 34.3993 21 34.5C21 35.3284 21.6716 36 22.5 36C23.3284 36 24 35.3284 24 34.5C24 33.8999 23.6476 33.3822 23.1386 33.1423Z" fill="black"/>
    <path fill-rule="evenodd" clip-rule="evenodd" d="M25.9257 19.466C25.2345 13.6338 20.6812 9 15.0084 9C8.84045 9 4 14.4727 4 21.0169C4 26.9025 7.90781 31.912 13.182 32.8695C13.0373 33.6467 12.9451 34.443 12.9095 35.2546L12.734 39.2546C12.3095 48.9267 20.0363 57 29.7176 57H34.2824C43.9638 57 51.6905 48.9267 51.2661 39.2546L51.0905 35.2546C51.0549 34.443 50.9628 33.6467 50.818 32.8695C56.0922 31.912 60 26.9025 60 21.0169C60 14.4727 55.1596 9 48.9916 9C43.3188 9 38.7655 13.6338 38.0743 19.466C36.8004 19.1612 35.4718 19 34.1069 19H29.8932C28.5282 19 27.1996 19.1612 25.9257 19.466ZM15.0084 11C10.1214 11 6 15.3922 6 21.0169C6 26.1147 9.39285 30.2092 13.6652 30.9229C14.0338 29.7426 14.5272 28.6186 15.1295 27.5661C13.2947 26.6773 12 24.5201 12 22C12 21.257 12.1125 20.5456 12.3183 19.8889C12.5422 19.1742 12.8765 18.5243 13.2963 17.9692C13.7428 17.3788 14.286 16.8955 14.8959 16.5556C15.5355 16.199 16.2484 16 17 16C17.7516 16 18.4645 16.199 19.1041 16.5556C19.714 16.8955 20.2572 17.3788 20.7037 17.9692C21.1235 18.5243 21.4578 19.1742 21.6817 19.8889C21.791 20.2378 21.874 20.6022 21.9278 20.9785C22.5863 20.6287 23.2703 20.321 23.9762 20.0588C23.5374 14.8977 19.6149 11 15.0084 11ZM48.8705 27.566C49.4728 28.6186 49.9662 29.7426 50.3348 30.9229C54.6072 30.2092 58 26.1147 58 21.0169C58 15.3922 53.8786 11 48.9916 11C44.3851 11 40.4626 14.8977 40.0238 20.0588C40.7297 20.321 41.4137 20.6287 42.0722 20.9785C42.126 20.6022 42.209 20.2378 42.3183 19.8889C42.5422 19.1742 42.8765 18.5243 43.2963 17.9692C43.7428 17.3788 44.286 16.8955 44.8959 16.5556C45.5355 16.199 46.2484 16 47 16C47.7516 16 48.4645 16.199 49.1041 16.5556C49.714 16.8955 50.2572 17.3788 50.7037 17.9692C51.1235 18.5243 51.4578 19.1742 51.6817 19.8889C51.8875 20.5456 52 21.257 52 22C52 24.5201 50.7053 26.6773 48.8705 27.566ZM14.9076 35.3423C15.2596 27.3215 21.8647 21 29.8932 21H34.1069C42.1354 21 48.7404 27.3215 49.0924 35.3423L49.268 39.3423C49.6425 47.8765 42.8248 55 34.2824 55H29.7176C21.1752 55 14.3575 47.8765 14.732 39.3423L14.9076 35.3423Z" fill="black"/>
</svg>
