<svg width="700" height="300" viewBox="0 0 167 157" fill="none" xmlns="http://www.w3.org/2000/svg">
    <path d="M37.9873 101.106L31.148 72.9139L120.133 48.9697L121.438 54.3474" stroke="black" stroke-width="2"/>
    <path d="M41.2316 114.48L46.4386 135.944L48.3601 135.427" stroke="black" stroke-width="2"/>
    <path d="M79.4495 131.875L83.2086 130.912" stroke="black" stroke-width="2" stroke-linecap="round"/>
    <path d="M89.2026 129.414L120.241 121.539" stroke="black" stroke-width="2" stroke-linecap="round"/>
    <path d="M77.214 132.409L49.209 139.339L42.8741 111.33" stroke="black" stroke-width="2" stroke-linecap="round"/>
    <path d="M40.6352 101.487L34.8757 76.0588L124.213 53.6145L132.749 91.3021" stroke="black" stroke-width="2" stroke-linecap="round"/>
    <path d="M13.0132 3.36051C12.1221 3.52948 11.2715 3.77715 10.4673 4.08767L10.8991 5.8671C9.82713 6.3227 8.86536 6.90989 8.02656 7.61504L6.29794 6.62674C5.67205 7.19246 5.12692 7.82035 4.6426 8.4823C4.15827 9.14425 3.73404 9.84126 3.40706 10.5779L5.13569 11.5662C4.75218 12.5316 4.54082 13.5479 4.5104 14.5989L2.49741 14.9806C2.5069 15.7564 2.6002 16.5437 2.79135 17.3314C2.9825 18.1192 3.26268 18.871 3.61395 19.582L5.62694 19.2003C6.14234 20.1478 6.80659 20.998 7.60429 21.7395L6.48627 23.2676C7.12625 23.8209 7.83654 24.3027 8.58538 24.7309C9.33422 25.159 10.1227 25.534 10.956 25.823L12.074 24.295C13.1662 24.634 14.3158 24.8208 15.5048 24.8477L15.9366 26.6272C16.8142 26.6188 17.7048 26.5363 18.5959 26.3673C19.4871 26.1984 20.3376 25.9507 21.1419 25.6402L20.7101 23.8607C21.782 23.4051 22.7438 22.8179 23.5826 22.1128L25.3112 23.1011C25.9371 22.5354 26.4822 21.9075 26.9666 21.2455C27.4509 20.5836 27.8751 19.8866 28.2021 19.1499L26.4735 18.1616C26.857 17.1962 27.0683 16.18 27.0988 15.1289L29.1117 14.7472C29.1023 13.9715 29.0089 13.1842 28.8178 12.3964C28.6267 11.6087 28.3465 10.8568 27.9952 10.1459L25.9822 10.5275C25.4668 9.57998 24.8026 8.7298 24.0049 7.98832L25.1229 6.46025C24.4829 5.90697 23.7726 5.42509 23.0238 4.99697C22.2749 4.56884 21.4865 4.19382 20.6531 3.90478L19.5351 5.43285C18.443 5.09384 17.2934 4.907 16.1044 4.8801L15.6726 3.10067C14.795 3.10905 13.9044 3.19154 13.0132 3.36051ZM14.4089 9.11221C18.0005 8.43118 21.5408 10.4552 22.3112 13.6302C23.0816 16.8051 20.7919 19.9346 17.2003 20.6156C13.6086 21.2966 10.0684 19.2726 9.29797 16.0977C8.52755 12.9227 10.8172 9.79324 14.4089 9.11221Z" fill="black"/>
    <path d="M64.836 18.4417C63.9495 18.6286 63.1056 18.8934 62.3096 19.2201L62.7873 20.9904C61.7274 21.4675 60.7811 22.074 59.9607 22.7959L58.207 21.8428C57.5959 22.4211 57.0672 23.0598 56.6001 23.7314C56.133 24.4029 55.7269 25.1083 55.4191 25.8514L57.1728 26.8045C56.8144 27.7774 56.6294 28.7977 56.6262 29.8491L54.6236 30.2714C54.6531 31.0467 54.7668 31.8319 54.9783 32.6156C55.1898 33.3993 55.4893 34.1453 55.8589 34.8489L57.8615 34.4267C58.4012 35.3636 59.0873 36.2001 59.904 36.9252L58.8258 38.4755C59.4799 39.0157 60.2025 39.4831 60.9622 39.896C61.7219 40.3089 62.5199 40.6678 63.3605 40.94L64.4387 39.3897C65.5393 39.7065 66.6934 39.8701 67.8828 39.8729L68.3606 41.6432C69.2377 41.617 70.1259 41.5166 71.0125 41.3296C71.899 41.1427 72.7429 40.8779 73.5389 40.5512L73.0612 38.781C74.1211 38.3038 75.0674 37.6973 75.8878 36.9754L77.6415 37.9285C78.2526 37.3503 78.7813 36.7115 79.2484 36.04C79.7155 35.3684 80.1216 34.663 80.4294 33.92L78.6757 32.9669C79.0341 31.9939 79.2191 30.9737 79.2223 29.9223L81.2249 29.5C81.1954 28.7246 81.0817 27.9394 80.8702 27.1557C80.6588 26.3721 80.3592 25.6261 79.9896 24.9224L77.987 25.3447C77.4473 24.4078 76.7612 23.5713 75.9445 22.8461L77.0227 21.2958C76.3686 20.7556 75.646 20.2882 74.8863 19.8754C74.1266 19.4625 73.3286 19.1035 72.488 18.8314L71.4098 20.3817C70.3092 20.0648 69.1551 19.9013 67.9657 19.8984L67.488 18.1282C66.6108 18.1543 65.7226 18.2548 64.836 18.4417V18.4417ZM66.3801 24.1637C69.9532 23.4102 73.5449 25.3622 74.3972 28.5207C75.2496 31.6792 73.0415 34.8542 69.4684 35.6077C65.8953 36.3611 62.3036 34.4092 61.4513 31.2506C60.5989 28.0921 62.807 24.9171 66.3801 24.1637Z" stroke="black" stroke-width="2" stroke-linecap="round" stroke-linejoin="round"/>
    <path d="M71.9503 44.6017C71.5239 44.6916 71.1181 44.8189 70.7352 44.9761L70.965 45.8274C70.4553 46.0569 70.0002 46.3485 69.6057 46.6957L68.7623 46.2373C68.4684 46.5154 68.2141 46.8226 67.9895 47.1456C67.7648 47.4685 67.5696 47.8078 67.4215 48.1651L68.2649 48.6235C68.0925 49.0914 68.0036 49.582 68.002 50.0877L67.0389 50.2908C67.0532 50.6636 67.1078 51.0413 67.2095 51.4181C67.3112 51.795 67.4553 52.1538 67.633 52.4922L68.5961 52.2891C68.8557 52.7397 69.1856 53.142 69.5784 53.4907L69.0599 54.2363C69.3744 54.4961 69.7219 54.7208 70.0873 54.9194C70.4526 55.118 70.8364 55.2906 71.2407 55.4215L71.7592 54.6759C72.2885 54.8283 72.8435 54.9069 73.4155 54.9083L73.6453 55.7596C74.0671 55.7471 74.4943 55.6988 74.9206 55.6089C75.347 55.519 75.7528 55.3916 76.1356 55.2345L75.9059 54.3832C76.4156 54.1537 76.8707 53.862 77.2652 53.5148L78.1086 53.9732C78.4025 53.6951 78.6568 53.3879 78.8814 53.065C79.106 52.742 79.3013 52.4028 79.4494 52.0454L78.606 51.5871C78.7783 51.1192 78.8673 50.6285 78.8689 50.1229L79.8319 49.9198C79.8177 49.5469 79.7631 49.1693 79.6614 48.7924C79.5597 48.4155 79.4156 48.0568 79.2379 47.7184L78.2748 47.9214C78.0152 47.4709 77.6853 47.0686 77.2925 46.7198L77.811 45.9743C77.4965 45.7145 77.149 45.4897 76.7836 45.2912C76.4182 45.0926 76.0345 44.92 75.6302 44.7891L75.1117 45.5346C74.5824 45.3823 74.0274 45.3036 73.4554 45.3022L73.2256 44.4509C72.8038 44.4635 72.3766 44.5118 71.9503 44.6017V44.6017ZM72.6929 47.3535C74.4112 46.9911 76.1385 47.9298 76.5484 49.4488C76.9583 50.9678 75.8964 52.4947 74.178 52.8571C72.4597 53.2194 70.7324 52.2807 70.3225 50.7617C69.9126 49.2427 70.9745 47.7158 72.6929 47.3535Z" stroke="black" stroke-opacity="0.7" stroke-width="2" stroke-linecap="round" stroke-linejoin="round"/>
    <path d="M120.878 111.1L125.604 99.5325C129.638 89.6577 141.204 85.9773 150.101 91.7379C159.013 97.5083 161.105 110.069 154.527 118.313L146.835 127.954C142.024 133.985 133.619 135.327 127.101 131.106C120.569 126.877 117.917 118.349 120.878 111.1Z" stroke="black" stroke-width="2"/>
    <path d="M123.601 105.521L125.646 100.149C129.441 90.1744 140.999 86.3324 149.891 92.0894C158.8 97.8579 160.749 110.488 153.974 118.552L150.332 122.886C145.305 128.87 136.793 130.116 130.182 125.835C123.554 121.544 120.772 112.955 123.601 105.521Z" fill="black"/>
    <path d="M70.2052 95.4524C70.5225 96.8536 69.6946 98.1799 68.4709 98.4874C67.2471 98.7948 65.9399 98.0049 65.6225 96.6037C65.3051 95.2025 66.1331 93.8761 67.3568 93.5687C68.5805 93.2613 69.8878 94.0511 70.2052 95.4524Z" stroke="black" stroke-width="2"/>
    <path d="M71.5886 95.1052C72.0883 97.3111 70.7886 99.4455 68.8008 99.9449C66.813 100.444 64.7385 99.1576 64.2389 96.9517C63.7392 94.7457 65.0388 92.6114 67.0267 92.112C69.0145 91.6126 71.089 92.8992 71.5886 95.1052Z" stroke="black" stroke-width="2"/>
    <path d="M63.1327 74.4587L75.4856 128.996" stroke="black" stroke-width="2" stroke-linecap="round" stroke-dasharray="12 12"/>
    <path d="M85.3817 67.5493L94.1513 106.267" stroke="black" stroke-width="2" stroke-linecap="round" stroke-dasharray="12 12"/>
    <path d="M98.8541 65.214L108.85 109.344" stroke="black" stroke-width="2" stroke-linecap="round" stroke-dasharray="12 12"/>
    <path d="M113.488 66.2092L121.456 101.388" stroke="black" stroke-width="2" stroke-linecap="round" stroke-dasharray="12 12"/>
    <path d="M60.9028 123.64L85.2136 117.532" stroke="black" stroke-width="2" stroke-linecap="round" stroke-dasharray="12 12"/>
    <path d="M48.2708 101.073L122.982 82.3035" stroke="black" stroke-width="2" stroke-linecap="round" stroke-dasharray="12 12"/>
    <path d="M61.5158 126.346L64.0852 125.701" stroke="black" stroke-width="2" stroke-linecap="round"/>
    <path d="M89.2138 116.748L106.212 112.478" stroke="black" stroke-width="2" stroke-linecap="round"/>
    <path d="M89.7796 119.246L105.394 115.323" stroke="black" stroke-width="2" stroke-linecap="round"/>
    <path d="M90.1095 120.703L98.6084 118.567" stroke="black" stroke-width="2" stroke-linecap="round"/>
    <path d="M61.846 127.803L67.1825 126.463" stroke="black" stroke-width="2" stroke-linecap="round"/>
    <path d="M92.2932 83.2153L95.1527 78.3169" stroke="black" stroke-opacity="0.6" stroke-width="2" stroke-linecap="round"/>
    <path d="M90.8037 91.4882L101.489 73.1833" stroke="black" stroke-opacity="0.6" stroke-width="2" stroke-linecap="round"/>
    <path d="M93.4027 92.7559L96.8736 86.8074M103.681 75.2514L100.121 81.2464" stroke="black" stroke-opacity="0.6" stroke-width="2" stroke-linecap="round"/>
    <path d="M95.3491 95.1416L98.0143 90.576M106.787 75.5477L104.185 80.0056" stroke="black" stroke-opacity="0.6" stroke-width="2" stroke-linecap="round"/>
    <path d="M96.4434 98.9879L100.039 92.8283M110.284 75.1444L106.932 81.0294" stroke="black" stroke-opacity="0.6" stroke-width="2" stroke-linecap="round"/>
    <path d="M99.9203 98.7528L102.605 94.1531M111.707 78.6759L109.167 82.8488" stroke="black" stroke-opacity="0.6" stroke-width="2" stroke-linecap="round"/>
    <path d="M103.096 99.0332L105.893 94.1833M113.231 81.4584L110.284 86.7014" stroke="black" stroke-opacity="0.6" stroke-width="2" stroke-linecap="round"/>
    <path d="M105.369 100.86L116.075 82.3142" stroke="black" stroke-opacity="0.6" stroke-width="2" stroke-linecap="round"/>
    <path d="M111.405 96.2406L114.653 90.6593" stroke="black" stroke-opacity="0.6" stroke-width="2" stroke-linecap="round"/>
    <path d="M100.481 10.9484C99.5943 11.1354 98.7504 11.4002 97.9544 11.7269L98.4321 13.4971C97.3722 13.9742 96.4259 14.5807 95.6055 15.3026L93.8518 14.3495C93.2407 14.9278 92.712 15.5665 92.2449 16.2381C91.7778 16.9097 91.3717 17.6151 91.0639 18.3581L92.8176 19.3112C92.4592 20.2842 92.2742 21.3044 92.271 22.3558L90.2684 22.7781C90.2979 23.5534 90.4116 24.3386 90.6231 25.1223C90.8346 25.906 91.1341 26.652 91.5037 27.3557L93.5063 26.9334C94.0461 27.8703 94.7321 28.7068 95.5488 29.432L94.4706 30.9822C95.1247 31.5224 95.8473 31.9898 96.607 32.4027C97.3667 32.8156 98.1647 33.1745 99.0053 33.4467L100.083 31.8964C101.184 32.2132 102.338 32.3768 103.528 32.3796L104.005 34.1499C104.883 34.1238 105.771 34.0233 106.657 33.8364C107.544 33.6494 108.388 33.3846 109.184 33.0579L108.706 31.2877C109.766 30.8105 110.712 30.204 111.533 29.4821L113.286 30.4352C113.897 29.857 114.426 29.2183 114.893 28.5467C115.36 27.8751 115.766 27.1697 116.074 26.4267L114.32 25.4736C114.679 24.5006 114.864 23.4804 114.867 22.429L116.87 22.0067C116.84 21.2313 116.727 20.4461 116.515 19.6625C116.304 18.8788 116.004 18.1328 115.634 17.4291L113.632 17.8514C113.092 16.9145 112.406 16.078 111.589 15.3528L112.668 13.8025C112.013 13.2623 111.291 12.795 110.531 12.3821C109.771 11.9692 108.973 11.6102 108.133 11.3381L107.055 12.8884C105.954 12.5715 104.8 12.408 103.61 12.4051L103.133 10.6349C102.256 10.661 101.367 10.7615 100.481 10.9484V10.9484ZM102.025 16.6704C105.598 15.9169 109.19 17.8689 110.042 21.0274C110.894 24.186 108.686 27.3609 105.113 28.1144C101.54 28.8678 97.9484 26.9159 97.0961 23.7573C96.2437 20.5988 98.4519 17.4239 102.025 16.6704Z" stroke="black" stroke-width="2" stroke-linecap="round" stroke-linejoin="round"/>
    <path d="M44.345 87.4299L74.0911 79.9567" stroke="black" stroke-width="2" stroke-linecap="round"/>
    <path d="M61.7125 111.997L80.0938 107.379" stroke="black" stroke-width="2" stroke-linecap="round"/>
    <path d="M85.7265 105.963L115.67 98.4403" stroke="black" stroke-width="2" stroke-linecap="round"/>
    <path d="M91.8045 75.6161L109.988 71.0478" stroke="black" stroke-width="2" stroke-linecap="round"/>
    <path d="M92.7537 135.241C91.9409 134.278 91.0265 132.887 90.8233 131.389C90.6835 130.358 89.638 129.641 88.9946 129.677" stroke="black" stroke-width="2" stroke-linecap="round"/>
    <path d="M89.0962 131.39C89.0962 130.605 89.1571 129.057 87.369 129.143" stroke="black" stroke-width="2" stroke-linecap="round"/>
    <path d="M87.7753 130.641C87.5043 129.821 86.737 128.266 85.3553 129.036" stroke="black" stroke-width="2" stroke-linecap="round"/>
    <path d="M86.6579 131.604C86.2177 131.318 85.642 130.148 85.2356 128.608C84.8292 127.067 82.6956 125.754 81.6797 125.291C81.1378 125.041 80.0541 124.905 80.0541 126.361C80.0541 127.645 83.0411 128.757 83.2036 130.641C83.3662 132.524 83.2714 133.351 83.2036 133.53C83.0343 133.886 82.4315 134.321 81.3749 133.209C80.3183 132.096 78.9365 131.818 78.2254 132.032C77.6158 132.246 76.7624 132.973 78.2254 134.172C79.3123 135.062 82.8785 136.718 86.0483 140.913" stroke="black" stroke-width="2" stroke-linecap="round"/>
    <path d="M120.766 151.893C112.475 143.59 100.853 136.047 95.8558 136.047C86.9108 136.047 86.9411 140.581 88.1376 143.025C88.2007 143.153 88.2807 143.268 88.3745 143.377C90.9959 146.413 97.0744 152.922 101.545 155.949" stroke="black" stroke-width="2" stroke-linecap="round"/>
    <path d="M9.34708 149.71C11.2977 146.8 16.3912 138.743 18.5924 134.837C20.0999 132.162 21.2303 129.188 21.6403 127.166C22.4531 123.159 24.7899 115.931 31.9016 125.882C33.5839 128.236 35.2207 130.386 28.4136 144.296" stroke="black" stroke-width="2" stroke-linecap="round"/>
    <path d="M34.6642 123.657C36.1509 121.729 38.8385 118.718 39.925 116.61L41.6976 113.419C42.8985 111.387 43.4124 109.73 43.8713 108.832C44.0753 108.433 44.2022 108.13 44.4847 107.536C44.7411 106.998 44.9666 106.454 44.7876 106.008C44.6506 105.666 44.079 105.069 42.8886 105.41C41.6981 105.751 40.8863 106.81 40.6292 107.297C40.3717 107.7 39.2536 109.161 38.9474 109.482C38.2358 110.227 34.7304 113.318 32.5442 111.507" stroke="black" stroke-width="2" stroke-linecap="round"/>
    <path d="M32.1189 108.514C33.9336 107.503 37.4589 105.682 38.6869 104.431C39.9481 104.174 43.0627 104.604 42.7484 102.842C42.6829 102.475 41.5863 101.565 39.9561 101.256C38.783 101.034 37.9324 100.947 36.9579 101.499C36.4054 101.811 36.1862 101.922 35.4729 102.421C34.9192 102.678 34.5818 102.975 34.1297 103.303C33.6652 103.639 32.9925 104.174 32.0514 105.109" stroke="black" stroke-width="2" stroke-linecap="round"/>
    <path d="M35.4729 102.422C35.1769 102.252 33.8978 102.263 32.39 103.05C30.7428 103.909 30.4614 104.234 29.8236 104.678C29.1858 105.121 27.9101 106.007 27.4107 106.435C26.5271 107.192 25.7219 108.044 25.404 108.475C24.8443 109.385 25.1562 110.074 25.9975 111.769" stroke="black" stroke-width="2" stroke-linecap="round"/>
    <path d="M26.502 114.915C26.502 116.043 26.2586 118.717 25.5152 120.945" stroke="black" stroke-width="2" stroke-linecap="round"/>
    <path d="M41.248 106.435L26.9015 114.691C25.1681 115.405 23.9624 112.903 25.7811 112.058L32.1087 108.505M43.2436 105.258L45.8967 103.747L44.6403 101.632L42.8442 102.587" stroke="black" stroke-width="2" stroke-linecap="round"/>
    <path d="M46.2546 103.542L47.7505 101.211" stroke="black" stroke-width="2" stroke-linecap="round"/>
    <path d="M44.9966 101.434L47.7505 101.211" stroke="black" stroke-width="2" stroke-linecap="round"/>
    <path d="M51.8424 56.8442C52.136 60.0678 47.7886 60.6916 47.6011 57.0026L47.1755 28.0053L47.0563 21.857C47.0341 20.7162 47.9565 19.7664 49.0866 19.7664L51.0796 19.7664M51.8424 56.8442L51.3411 28.0056L51.0796 19.7664M51.8424 56.8442L55.7166 56.8442C56.8675 56.8442 57.7983 55.8605 57.7452 54.7002L56.5226 28.0056L56.2423 21.646C56.1957 20.5888 55.3438 19.7664 54.2952 19.7664L51.0796 19.7664" stroke="black" stroke-width="2" stroke-linecap="round"/>
    <path d="M59.3438 35.29C58.2166 33.2338 58.9045 30.6271 60.8067 29.4705L93.1944 9.77711C95.0639 8.64036 97.4794 9.29204 98.5914 11.3205L108.553 29.4921C109.68 31.5483 108.992 34.1549 107.09 35.3116L74.7024 55.005C72.8329 56.1417 70.4174 55.4901 69.3054 53.4616L59.3438 35.29Z" stroke="black" stroke-width="2"/>
    <ellipse cx="1.13272" cy="1.2681" rx="1.13272" ry="1.2681" transform="matrix(0.854443 -0.519546 0.480706 0.876882 61.1526 32.536)" fill="black"/>
    <path d="M99.3936 34.2415L105.729 30.3895M102.618 34.7518L106.745 32.2428" stroke="black" stroke-width="2" stroke-linecap="round"/>
    <path d="M70.3003 45.3422C71.497 44.4529 74.6774 43.4497 78.7174 45.554C79.4578 45.9396 80.3967 45.4195 80.381 44.5865C80.2872 39.6192 81.1995 34.8345 89.2618 34.1466C90.2786 34.0598 90.8644 32.3859 90.2077 31.5881C87.8921 28.775 86.3152 24.3655 89.5976 19.1468C89.8314 18.7752 89.4893 18.2664 89.0642 18.3756V18.3756C88.5853 18.4986 88.3128 17.9408 88.7295 17.6764C90.2599 16.7054 91.9089 16.0254 91.6997 17.3474C91.3984 19.2518 91.5976 20.2188 92.5824 21.4168" stroke="black" stroke-width="2" stroke-linecap="round"/>
</svg>
